<!-- icon666.com - MILLIONS vector ICONS FREE --><svg id="Capa_1" enable-background="new 0 0 512.013 512.013" viewBox="0 0 512.013 512.013" xmlns="http://www.w3.org/2000/svg"><g><path d="m477.013.007h-442c-19.299 0-35 15.701-35 35v181c0 5.523 4.477 10 10 10s10-4.477 10-10v-181c0-.276.027-.544.041-.816l33.459 33.459v376.715l-33.459 33.459c-.015-.272-.041-.541-.041-.816v-181c0-5.523-4.477-10-10-10s-10 4.477-10 10v181c0 19.299 15.701 35 35 35h442c19.299 0 35-15.701 35-35v-442c0-19.301-15.7-35.001-35-35.001zm-18.5 444.357v-376.715l33.459-33.459c.015.272.041.541.041.816v442c0 .276-.027.544-.041.816zm-385-5.857v-365h365v365zm403.5-418.5c.276 0 .544.027.816.041l-33.459 33.459h-376.714l-33.459-33.459c.272-.015.541-.041.816-.041zm-442 472c-.276 0-.544-.027-.816-.041l33.459-33.459h376.715l33.459 33.459c-.272.015-.541.041-.816.041z"></path><circle cx="10" cy="256.007" r="10"></circle><path d="m270.156 171.435c-3.778-3.777-8.8-5.858-14.143-5.858-5.342 0-10.365 2.081-14.143 5.858l-100.857 100.858c-5.74 5.741-7.442 14.296-4.335 21.796 3.106 7.5 10.359 12.346 18.477 12.346h201.716c8.118 0 15.371-4.846 18.478-12.346s1.405-16.055-4.335-21.795zm-114.994 114.994 100.851-100.852 100.849 100.858z"></path></g></svg>