<!-- icon666.com - MILLIONS vector ICONS FREE --><svg id="Capa_1" enable-background="new 0 0 512 512" viewBox="0 0 512 512" xmlns="http://www.w3.org/2000/svg"><g><path d="m477 0h-442c-19.299 0-35 15.701-35 35v442c0 19.299 15.701 35 35 35h181c5.523 0 10-4.477 10-10s-4.477-10-10-10h-181c-.275 0-.544-.027-.816-.041l33.459-33.459h376.715l33.459 33.459c-.273.014-.542.041-.817.041h-181c-5.522 0-10 4.477-10 10s4.478 10 10 10h181c19.299 0 35-15.701 35-35v-442c0-19.299-15.701-35-35-35zm15 35v442c0 .276-.027.544-.041.816l-33.459-33.459v-376.714l33.459-33.459c.014.272.041.54.041.816zm-472 442v-442c0-.276.027-.544.041-.816l33.459 33.459v376.715l-33.459 33.459c-.014-.273-.041-.541-.041-.817zm53.5-403.5h365v365h-365zm403.5-53.5c.275 0 .544.027.816.041l-33.459 33.459h-376.714l-33.459-33.459c.272-.014.541-.041.816-.041z"></path><circle cx="256" cy="501.987" r="10"></circle><path d="m239.713 141c-5.741-5.741-14.296-7.441-21.796-4.335s-12.346 10.359-12.346 18.478v201.716c0 8.118 4.846 15.371 12.346 18.477 2.489 1.031 5.093 1.532 7.674 1.532 5.194 0 10.287-2.033 14.122-5.868l100.858-100.857c3.777-3.778 5.857-8.8 5.857-14.143 0-5.342-2.08-10.365-5.857-14.143zm-14.142 215.857.006-201.708 100.852 100.851z"></path></g></svg>