<!-- icon666.com - MILLIONS vector ICONS FREE --><svg id="Capa_1" enable-background="new 0 0 512 512" viewBox="0 0 512 512" xmlns="http://www.w3.org/2000/svg"><g><path d="m477 0h-442c-19.299 0-35 15.701-35 35v442c0 19.299 15.701 35 35 35h181c5.523 0 10-4.477 10-10s-4.477-10-10-10h-181c-.276 0-.544-.027-.816-.041l33.459-33.459h376.715l33.459 33.459c-.273.014-.542.041-.817.041h-180.571c-5.523 0-10 4.477-10 10s4.477 10 10 10h180.571c19.299 0 35-15.701 35-35v-442c0-19.299-15.701-35-35-35zm15 35v442c0 .276-.027.544-.041.816l-33.459-33.459v-376.714l33.459-33.459c.014.272.041.54.041.816zm-472 442v-442c0-.276.027-.544.041-.816l33.459 33.459v376.715l-33.459 33.459c-.014-.273-.041-.541-.041-.817zm53.5-403.5h365v365h-365zm403.5-53.5c.275 0 .544.027.816.041l-33.459 33.459h-376.714l-33.459-33.459c.272-.014.54-.041.816-.041z"></path><circle cx="256" cy="501.987" r="10"></circle><path d="m294.082 136.665c-7.498-3.106-16.055-1.405-21.795 4.335l-100.858 100.857c-3.777 3.778-5.858 8.8-5.858 14.143 0 5.342 2.081 10.365 5.858 14.143l100.858 100.857c3.836 3.835 8.928 5.868 14.122 5.868 2.58 0 5.185-.501 7.674-1.532 7.5-3.106 12.346-10.359 12.346-18.477v-201.717c0-8.118-4.847-15.371-12.347-18.477zm-7.66 220.186-100.851-100.851 100.858-100.849z"></path></g></svg>