<!-- icon666.com - MILLIONS vector ICONS FREE --><svg id="Capa_1" enable-background="new 0 0 512 512" viewBox="0 0 512 512" xmlns="http://www.w3.org/2000/svg"><g><path d="m512 35c0-19.299-15.701-35-35-35h-442c-19.299 0-35 15.701-35 35v442c0 19.299 15.701 35 35 35h442c19.299 0 35-15.701 35-35v-181c0-5.523-4.478-10-10-10s-10 4.477-10 10v181c0 .276-.027.544-.041.816l-33.459-33.459v-376.714l33.459-33.459c.014.272.041.54.041.816v181c0 5.523 4.478 10 10 10s10-4.477 10-10zm-35-15c.275 0 .544.027.816.041l-33.459 33.459h-376.714l-33.459-33.459c.272-.014.541-.041.816-.041zm-456.959 457.816c-.014-.272-.041-.54-.041-.816v-442c0-.276.027-.544.041-.816l33.459 33.459v376.715zm53.459-39.316v-365h365v365zm-38.5 53.5c-.275 0-.544-.027-.816-.041l33.459-33.459h376.715l33.459 33.459c-.273.014-.542.041-.817.041z" fill="#000000" style="fill: rgb(0, 0, 0);"></path><circle cx="501.987" cy="256" r="10" fill="#000000" style="fill: rgb(0, 0, 0);"></circle><path d="m356.857 205.571h-201.714c-8.118 0-15.371 4.846-18.478 12.346s-1.405 16.055 4.335 21.796l100.857 100.858c3.777 3.777 8.8 5.858 14.143 5.858s10.365-2.081 14.143-5.858l100.857-100.858c5.74-5.741 7.442-14.296 4.335-21.796s-10.359-12.346-18.478-12.346zm-100.857 120.858-100.857-100.858 201.709.007z" fill="#000000" style="fill: rgb(0, 0, 0);"></path></g></svg>