<svg xmlns="http://www.w3.org/2000/svg" version="1.1" xmlns:xlink="http://www.w3.org/1999/xlink" width="16" height="16" x="0" y="0" viewBox="0 0 24 24" style="enable-background:new 0 0 512 512" xml:space="preserve" class=""><g><path fill="#000000" fill-rule="evenodd" d="M4.34 7.684C4.1 8.768 4 10.17 4 12s.1 3.232.34 4.316c.238 1.072.602 1.77 1.088 2.256.486.486 1.184.85 2.256 1.088C8.768 19.9 10.17 20 12 20s3.232-.1 4.316-.34c1.072-.239 1.77-.602 2.256-1.088s.85-1.184 1.088-2.256C19.9 15.232 20 13.83 20 12s-.1-3.232-.34-4.316c-.239-1.072-.602-1.77-1.088-2.256-.486-.486-1.184-.85-2.256-1.088C15.232 4.1 13.83 4 12 4s-3.232.1-4.316.34c-1.072.238-1.77.602-2.256 1.088-.486.486-.85 1.184-1.088 2.256zm2.91-5.296C8.55 2.099 10.124 2 12 2s3.451.1 4.75.388c1.31.291 2.399.788 3.236 1.626s1.335 1.926 1.626 3.236C21.901 8.55 22 10.124 22 12s-.1 3.451-.388 4.75c-.291 1.31-.788 2.399-1.626 3.236s-1.926 1.335-3.236 1.626C15.45 21.901 13.876 22 12 22s-3.451-.1-4.75-.388c-1.31-.291-2.399-.788-3.236-1.626S2.679 18.06 2.388 16.75C2.099 15.45 2 13.876 2 12s.1-3.451.388-4.75c.291-1.31.788-2.399 1.626-3.236S5.94 2.679 7.25 2.388z" clip-rule="evenodd" opacity="1" data-original="#000000"></path></g></svg>