<svg xmlns="http://www.w3.org/2000/svg" version="1.1" xmlns:xlink="http://www.w3.org/1999/xlink" width="512" height="512" x="0" y="0" viewBox="0 0 30 30" style="enable-background:new 0 0 512 512" xml:space="preserve" class=""><g><path d="M24.23 7.17H13.34a.38.38 0 0 1-.34-.2l-1.31-1.82a2.039 2.039 0 0 0-1.77-1.04H5.78C4.25 4.11 3 5.36 3 6.89v16.24c0 1.52 1.24 2.76 2.77 2.76h18.46A2.77 2.77 0 0 0 27 23.12V9.95c0-1.53-1.24-2.78-2.77-2.78zM11.98 14.2c.39-.4 1.02-.4 1.41 0l.61.61v-2.97c0-.56.45-1 1-1 .56 0 1 .44 1 1v2.96l.61-.61a.996.996 0 0 1 1.41 0c.4.39.4 1.02.01 1.41-2.407 2.397-2.267 2.287-2.47 2.45-.17.11-.36.17-.56.17s-.4-.06-.56-.17a4608.84 4608.84 0 0 0-2.46-2.44.996.996 0 0 1 0-1.41zm6.42 8.02h-6.8c-.55 0-1-.44-1-1 0-.55.45-1 1-1h6.8c.56 0 1 .45 1 1 0 .56-.44 1-1 1z" fill="#ffffff" opacity="1" data-original="#000000" class=""></path></g></svg>